PathFileType	4	(X/Y/Z)	Patient5_TMGait_0pt45_1_left_04.trc.trc
DataRate	CameraRate	NumFrames	NumMarkers	Units	OrigDataRate	OrigDataStartFrame	OrigNumFrames
58.823529411765	58.823529411765	5	32	mm	58.823529411765	89	       141
Frame#	Time	R.ASIS			L.ASIS			Chest			R.Shoulder			Neck			L.Shoulder			L.Elbow			L.Wrist			R.Elbow			R.Wrist			L.Thigh.Superior			L.Thigh.Lateral			L.Thigh.Inferior			L.Patella			L.Shank.Superior			L.Shank.Lateral			L.Shank.Inferior			L.Heel			L.Midfoot.Lateral			L.Midfoot.Superior			L.Toe			R.Thigh.Superior			R.Thigh.Lateral			R.Thigh.Inferior			R.Patella			R.Shank.Superior			R.Shank.Lateral			R.Shank.Inferior			R.Heel			R.Midfoot.Lateral			R.Midfoot.Superior			R.Toe			
		X1	Y1	Z1	X2	Y2	Z2	X3	Y3	Z3	X4	Y4	Z4	X5	Y5	Z5	X6	Y6	Z6	X7	Y7	Z7	X8	Y8	Z8	X9	Y9	Z9	X10	Y10	Z10	X11	Y11	Z11	X12	Y12	Z12	X13	Y13	Z13	X14	Y14	Z14	X15	Y15	Z15	X16	Y16	Z16	X17	Y17	Z17	X18	Y18	Z18	X19	Y19	Z19	X20	Y20	Z20	X21	Y21	Z21	X22	Y22	Z22	X23	Y23	Z23	X24	Y24	Z24	X25	Y25	Z25	X26	Y26	Z26	X27	Y27	Z27	X28	Y28	Z28	X29	Y29	Z29	X30	Y30	Z30	X31	Y31	Z31	X32	Y32	Z32	

89	6.596000000000	944.077301988332	973.624839647914	557.007165089321	935.245119596313	949.480073765744	315.314013906913	963.932270935813	1433.649668876363	456.172105752073	857.102215290485	1483.032815560641	624.800843042966	826.302313914912	1542.978862095826	440.730494335305	895.433021497162	1497.128483104904	259.367108245266	848.940719523222	1173.058651124433	126.759106605500	969.811219441010	912.631855165573	121.700473234587	787.361547311045	1155.399192133277	753.118991216244	996.845418228818	964.702093444193	689.164097033075	915.257754077967	719.833120546864	319.073356131515	824.227300652202	663.374076493069	279.743778269463	879.970277769696	593.208835523114	342.356815920639	842.367820455145	473.310412204566	347.317771392906	770.646257862282	386.702029545599	370.215018107845	686.203459646415	337.608608928714	296.201172130135	708.235292039101	278.180750058749	383.888373004192	524.506605609302	66.938946255079	386.973884224380	608.160326261819	38.342526165151	323.202150297638	709.478454999327	90.139400416719	361.483890039691	812.784886097519	44.291605242328	360.080724847210	987.128282661112	747.406481536566	579.581209937410	913.519824160133	659.235384302645	631.948845918512	1002.072695847603	619.704251501426	559.962662208631	1017.954240771213	522.779692365351	591.562741274141	990.563710143135	420.552889172064	551.576032807720	921.111195783173	343.377572452190	626.717649439941	989.213596942191	280.234059529473	549.031542297821	894.294267788600	51.526472995183	505.010590166073	965.666804178783	23.618335667385	585.657888274621	1071.864200283365	90.157502136156	573.641905308891	1176.003128421334	46.971325789733	582.967038940550	
90	6.613000000000	944.132519671634	973.850038003242	560.378739104834	935.322634925833	950.296139319901	318.551731121825	966.042996590293	1434.270755132439	460.610824622491	859.765786357442	1483.700166621655	629.468709002943	828.579440641983	1544.176238255491	445.482592331522	897.405978619333	1498.559788182685	263.959915727226	844.567805079175	1175.840621214230	131.065224464970	959.498083021481	912.877198800999	120.861164075982	792.502826362291	1155.245482614975	756.968649851081	1001.774871458184	964.925252583163	691.249539216229	915.765899554564	721.058255592739	321.334368476326	825.007566313771	664.375688026020	281.609058621270	881.185190893239	594.183713535717	343.705945416308	843.373318258867	472.870110511939	347.601361826362	770.263717106012	387.211338106384	370.476314678050	684.591130566722	339.774735557717	296.139282521784	705.547730847111	279.919390533371	383.941004575047	518.126987154871	71.886726016112	386.229702401761	601.305686088816	40.999447655380	322.852540903314	703.668662458347	90.905559934271	360.702803391428	805.278085830443	44.082291232466	359.933187613481	987.359913699128	748.136226284625	583.033150048185	913.445693682869	659.942134599036	634.480526306181	1002.438851251381	620.541365564742	563.005438088696	1017.501675651379	523.117744894390	593.962418658843	988.793532794698	420.761658442134	553.349772129405	918.723134263059	344.175614501339	628.681234126184	985.378843638269	280.452165082907	550.085342543317	886.951512141222	52.105992294455	505.437592197392	958.302909614725	24.198810218755	586.021801396532	1065.036203612169	89.984575973156	573.394096308136	1168.884014586453	46.069900168953	582.758460237343	
91	6.630000000000	944.294826086548	974.386179100406	563.820503371216	935.175236822669	951.535433113229	321.847452711577	968.225915066098	1435.230467221608	465.047594800155	862.390793045533	1484.872432578962	634.037400770689	831.019082223207	1545.793976402600	450.149219440144	899.899787046830	1500.370936816797	268.557760373471	840.698957325120	1179.163727608826	135.348961553956	949.587382818650	913.797319305983	120.666042940983	797.131877901524	1155.742897523393	760.718536973135	1006.693065003679	966.281207124186	693.507629479769	916.499494294792	722.782792551002	323.147137841503	826.032385077375	665.800501557814	283.208940065513	882.970027854252	595.539434090890	344.454063438688	845.124341183480	472.620123926463	347.161044465985	770.578007959873	387.870213168363	370.132850976593	683.460426662958	342.321921490140	295.780139803078	703.502067066189	281.862439060378	383.457575481296	512.097051294548	77.602563685468	385.436072706083	594.637309769117	44.003586695248	322.473331169071	698.255296206974	91.693440286388	359.742765403365	797.808677944307	43.895959978200	359.790008695805	987.693291918605	748.900520271881	587.177252886402	913.104316994172	660.685654216549	637.302623076796	1002.964799301334	621.392987307867	566.838500205488	1016.992650856689	523.428802940345	597.151006811445	987.031012189138	420.963088549826	555.638891716102	915.928338044750	345.034330332579	630.794574233290	981.454282508305	280.716558198987	551.583838722531	879.474140570036	52.715431949768	506.061930927583	950.890197360093	24.651017401451	586.495163732169	1057.935655681463	89.950468290100	573.654890590091	1161.581137260776	45.623600256372	582.892196153382	
92	6.647000000000	944.655329741770	975.036442361065	567.263964937240	934.847614470064	953.059141767532	325.170302660185	970.441608096333	1436.394434568780	469.441523554054	865.009935290229	1486.357842157887	638.558645020091	833.527402979987	1547.641027057399	454.803776089651	902.639154354654	1502.372680199681	273.155568827217	837.337453924074	1182.848228443540	139.432664632565	940.327591182177	915.267407218592	121.181615916662	801.154199256892	1156.713301064013	764.450842492344	1011.522619502118	968.622734047058	696.008153684320	917.570679441454	724.817888846753	324.460464063408	827.446781650722	667.448260883650	284.469737306700	885.479090685684	597.096201077437	344.547124832883	847.836111179499	472.340284992729	345.955505806101	771.740676844421	388.524313707212	369.190060165311	682.982080290363	345.111770740664	295.157557097877	702.231657097724	283.893632274329	382.475250622493	506.511053421858	84.067394259286	384.694000821087	588.187477753369	47.368699612077	322.129948202002	693.252416760589	92.429658652460	358.685752854441	790.396285638826	43.744740572866	359.662726674252	987.851639788867	749.438297497116	591.739345652967	912.216353699961	661.252470216906	640.187418575378	1003.180687640434	621.981896936467	571.034456753249	1016.013477774397	523.480099243057	600.671690102341	984.933729236189	420.993268910295	558.061017875251	912.521416267777	345.740437529212	632.736449468149	977.254338908877	280.861789015085	553.187505210333	871.904419430547	53.212893984057	506.649421681627	943.414535809263	24.954287833380	586.931483783215	1050.612409096351	89.929200486675	574.101191143271	1154.126034795522	45.409985375283	583.170947909015	
93	6.664000000000	945.254421700289	975.647821963965	570.638339445967	934.402813766409	954.714184940677	328.485320924868	972.665045118642	1437.622733777747	473.763617442168	867.677474592589	1487.955280062920	643.089268748913	836.030019385163	1549.527112325030	459.513871496572	905.331517378869	1504.377401646696	277.750518900540	834.428665663400	1186.687576208640	143.205719852716	931.949444840949	917.136773379834	122.426706759607	804.563294754989	1157.950996256274	768.242480929532	1016.193294244634	971.682664888063	698.822366248690	919.104130442848	726.949401810067	325.306230187934	829.453644879246	669.076097511151	285.349356432854	888.906015265647	598.667247306904	344.011943968817	851.800106672019	471.819127305706	343.999860568129	773.982746296640	389.021860359145	367.701763827699	683.418011369774	347.999007127465	294.306810419615	701.930059044908	285.910040537132	381.065460912772	501.519421053419	91.331594577607	384.097746396908	582.018659978585	51.168962847427	321.886014245024	688.694093367592	93.068750460858	357.619093249360	783.067321679788	43.629259802522	359.563892843711	987.628722611495	749.627530364616	596.278289533877	910.709780867408	661.557689949359	642.919641814604	1002.719089798961	622.165783286480	575.052621064231	1014.282188622560	523.182767841485	603.997826366242	982.228685286104	420.794436357767	560.262896293218	908.453646105274	346.193804220095	634.320617879208	972.637629769964	280.817236838938	554.610891424156	864.281628610296	53.529562260733	507.068133974655	935.877128593592	25.126369638656	587.250115924334	1043.133660332935	89.853323759019	574.492931241346	1146.564419665082	45.271861824882	583.451405740082	
